<svg width="102" height="22" viewBox="0 0 102 22" fill="none" xmlns="http://www.w3.org/2000/svg">
<path d="M94.2417 15.4033L94.9921 13.2505H95.8655L94.6969 16.3259H93.7927L92.624 13.2505H93.4974L94.2417 15.4033Z" fill="#1D1D1B" fill-opacity="0.24"/>
<path d="M92.504 15.1139H90.1851C90.2876 15.4993 90.5767 15.6921 91.0524 15.6921C91.3558 15.6921 91.5854 15.5896 91.7413 15.3845L92.381 15.7536C92.0775 16.1923 91.6306 16.4117 91.0401 16.4117C90.5316 16.4117 90.1236 16.2579 89.8161 15.9504C89.5085 15.6429 89.3547 15.2554 89.3547 14.7879C89.3547 14.3286 89.5065 13.9432 89.8099 13.6315C90.1092 13.3199 90.4988 13.1641 90.9786 13.1641C91.4337 13.1641 91.8048 13.3199 92.0919 13.6315C92.3871 13.9432 92.5347 14.3286 92.5347 14.7879C92.5347 14.874 92.5245 14.9827 92.504 15.1139ZM90.1728 14.4988H91.7413C91.6962 14.2979 91.6039 14.1441 91.4645 14.0375C91.3292 13.9309 91.1672 13.8776 90.9786 13.8776C90.7653 13.8776 90.589 13.9329 90.4496 14.0436C90.3102 14.1502 90.2179 14.302 90.1728 14.4988Z" fill="#1D1D1B" fill-opacity="0.24"/>
<path d="M87.6745 13.1641C88.0149 13.1641 88.2917 13.2768 88.5049 13.5024C88.7263 13.732 88.8371 14.0437 88.8371 14.4373V16.3256H88.0436V14.5357C88.0436 14.3348 87.9882 14.179 87.8775 14.0683C87.7709 13.9575 87.6233 13.9022 87.4347 13.9022C87.2255 13.9022 87.0595 13.9678 86.9364 14.099C86.8175 14.2261 86.7581 14.4148 86.7581 14.6649V16.3256H85.9646V12.02H86.7581V13.5946C86.9467 13.3076 87.2522 13.1641 87.6745 13.1641Z" fill="#1D1D1B" fill-opacity="0.24"/>
<path d="M83.8676 14.1236C83.8676 14.2548 84.0542 14.3676 84.4273 14.4619C84.5585 14.4906 84.6775 14.5255 84.7841 14.5665C84.8907 14.6034 84.9973 14.6587 85.1039 14.7325C85.2146 14.8022 85.3007 14.8966 85.3623 15.0155C85.4238 15.1344 85.4545 15.2718 85.4545 15.4276C85.4545 15.7433 85.3356 15.9873 85.0978 16.1595C84.8599 16.3277 84.5667 16.4117 84.2182 16.4117C83.5867 16.4117 83.1561 16.1677 82.9265 15.6798L83.6154 15.2923C83.7097 15.5588 83.9107 15.6921 84.2182 15.6921C84.5011 15.6921 84.6426 15.6039 84.6426 15.4276C84.6426 15.2964 84.456 15.1836 84.0829 15.0893C83.9435 15.0524 83.8245 15.0155 83.7261 14.9786C83.6277 14.9417 83.5211 14.8884 83.4063 14.8186C83.2915 14.7448 83.2033 14.6526 83.1418 14.5419C83.0844 14.427 83.0557 14.2938 83.0557 14.142C83.0557 13.8386 83.1664 13.6008 83.3878 13.4285C83.6134 13.2522 83.8922 13.1641 84.2243 13.1641C84.4745 13.1641 84.7021 13.2215 84.9071 13.3363C85.1121 13.447 85.2741 13.6069 85.393 13.8161L84.7164 14.1851C84.618 13.976 84.454 13.8714 84.2243 13.8714C84.1218 13.8714 84.0357 13.896 83.966 13.9452C83.9004 13.9903 83.8676 14.0498 83.8676 14.1236Z" fill="#1D1D1B" fill-opacity="0.24"/>
<path d="M81.6393 14.9112V13.2505H82.4328V16.3259H81.6393V15.9815C81.4507 16.2685 81.1452 16.412 80.7228 16.412C80.3866 16.412 80.1077 16.2993 79.8863 16.0737C79.669 15.8441 79.5603 15.5325 79.5603 15.1388V13.2505H80.3538V15.0404C80.3538 15.2413 80.4071 15.3971 80.5137 15.5079C80.6244 15.6186 80.7741 15.6739 80.9627 15.6739C81.1718 15.6739 81.3358 15.6104 81.4548 15.4832C81.5778 15.352 81.6393 15.1614 81.6393 14.9112Z" fill="#1D1D1B" fill-opacity="0.24"/>
<path d="M77.5492 13.1641C77.9633 13.1641 78.316 13.322 78.6071 13.6377C78.9024 13.9534 79.05 14.3368 79.05 14.7879C79.05 15.2472 78.9024 15.6326 78.6071 15.9443C78.3201 16.2559 77.9674 16.4117 77.5492 16.4117C77.1186 16.4117 76.7865 16.2621 76.5527 15.9627V16.3256H75.7593V12.02H76.5527V13.6131C76.7865 13.3138 77.1186 13.1641 77.5492 13.1641ZM76.7926 15.4153C76.9525 15.5752 77.1555 15.6552 77.4016 15.6552C77.6476 15.6552 77.8506 15.5752 78.0105 15.4153C78.1745 15.2513 78.2565 15.0421 78.2565 14.7879C78.2565 14.5337 78.1745 14.3266 78.0105 14.1667C77.8506 14.0026 77.6476 13.9206 77.4016 13.9206C77.1555 13.9206 76.9525 14.0026 76.7926 14.1667C76.6327 14.3266 76.5527 14.5337 76.5527 14.7879C76.5527 15.0421 76.6327 15.2513 76.7926 15.4153Z" fill="#1D1D1B" fill-opacity="0.24"/>
<path d="M74.3604 13.2505V13.7794C74.4301 13.5867 74.549 13.4412 74.7171 13.3427C74.8852 13.2402 75.078 13.189 75.2953 13.189V14.0747C75.0534 14.0419 74.836 14.0911 74.6433 14.2223C74.4547 14.3494 74.3604 14.5606 74.3604 14.8558V16.3259H73.5669V13.2505H74.3604Z" fill="#1D1D1B" fill-opacity="0.24"/>
<path d="M72.9822 15.1139H70.6634C70.7659 15.4993 71.055 15.6921 71.5306 15.6921C71.8341 15.6921 72.0637 15.5896 72.2195 15.3845L72.8592 15.7536C72.5558 16.1923 72.1088 16.4117 71.5183 16.4117C71.0099 16.4117 70.6019 16.2579 70.2943 15.9504C69.9868 15.6429 69.833 15.2554 69.833 14.7879C69.833 14.3286 69.9847 13.9432 70.2882 13.6315C70.5875 13.3199 70.9771 13.1641 71.4568 13.1641C71.912 13.1641 72.2831 13.3199 72.5701 13.6315C72.8654 13.9432 73.013 14.3286 73.013 14.7879C73.013 14.874 73.0027 14.9827 72.9822 15.1139ZM70.6511 14.4988H72.2195C72.1744 14.2979 72.0822 14.1441 71.9428 14.0375C71.8074 13.9309 71.6455 13.8776 71.4568 13.8776C71.2436 13.8776 71.0673 13.9329 70.9279 14.0436C70.7884 14.1502 70.6962 14.302 70.6511 14.4988Z" fill="#1D1D1B" fill-opacity="0.24"/>
<path d="M68.4738 13.6131V12.02H69.2673V16.3256H68.4738V15.9627C68.2401 16.2621 67.9079 16.4117 67.4774 16.4117C67.0632 16.4117 66.7085 16.2559 66.4133 15.9443C66.1221 15.6285 65.9766 15.2431 65.9766 14.7879C65.9766 14.3368 66.1221 13.9534 66.4133 13.6377C66.7085 13.322 67.0632 13.1641 67.4774 13.1641C67.9079 13.1641 68.2401 13.3138 68.4738 13.6131ZM67.0099 15.4153C67.178 15.5752 67.3831 15.6552 67.625 15.6552C67.871 15.6552 68.074 15.5752 68.2339 15.4153C68.3938 15.2513 68.4738 15.0421 68.4738 14.7879C68.4738 14.5337 68.3938 14.3266 68.2339 14.1667C68.074 14.0026 67.871 13.9206 67.625 13.9206C67.379 13.9206 67.1739 14.0026 67.0099 14.1667C66.85 14.3266 66.77 14.5337 66.77 14.7879C66.77 15.0421 66.85 15.2513 67.0099 15.4153Z" fill="#1D1D1B" fill-opacity="0.24"/>
<path d="M97.7809 7.73466L98.4636 5.66797H99.3125L98.193 8.7434C98.0331 9.18626 97.8199 9.5061 97.5533 9.70293C97.2909 9.90386 96.9628 9.99407 96.5692 9.97357V9.23547C96.7783 9.23957 96.9464 9.19446 97.0735 9.10015C97.2007 9.00583 97.3011 8.85411 97.3749 8.64498L96.114 5.66797H96.9813L97.7809 7.73466Z" fill="#1D1D1B" fill-opacity="0.24"/>
<path d="M94.5182 5.58205C94.9323 5.58205 95.285 5.73992 95.5761 6.05566C95.8714 6.37141 96.019 6.75481 96.019 7.20587C96.019 7.66514 95.8714 8.05059 95.5761 8.36224C95.2891 8.67388 94.9364 8.8297 94.5182 8.8297C94.0876 8.8297 93.7555 8.68003 93.5217 8.38069V8.74359H92.7283V4.43799H93.5217V6.03106C93.7555 5.73172 94.0876 5.58205 94.5182 5.58205ZM93.7616 7.83326C93.9215 7.99318 94.1245 8.07314 94.3706 8.07314C94.6166 8.07314 94.8196 7.99318 94.9795 7.83326C95.1435 7.66924 95.2255 7.46011 95.2255 7.20587C95.2255 6.95164 95.1435 6.74456 94.9795 6.58464C94.8196 6.42061 94.6166 6.3386 94.3706 6.3386C94.1245 6.3386 93.9215 6.42061 93.7616 6.58464C93.6017 6.74456 93.5217 6.95164 93.5217 7.20587C93.5217 7.46011 93.6017 7.66924 93.7616 7.83326Z" fill="#1D1D1B" fill-opacity="0.24"/>
<path d="M89.6716 6.03106V4.43799H90.465V8.74359H89.6716V8.38069C89.4378 8.68003 89.1057 8.8297 88.6751 8.8297C88.261 8.8297 87.9063 8.67388 87.611 8.36224C87.3199 8.04649 87.1743 7.66104 87.1743 7.20587C87.1743 6.75481 87.3199 6.37141 87.611 6.05566C87.9063 5.73992 88.261 5.58205 88.6751 5.58205C89.1057 5.58205 89.4378 5.73172 89.6716 6.03106ZM88.2077 7.83326C88.3758 7.99318 88.5808 8.07314 88.8227 8.07314C89.0688 8.07314 89.2718 7.99318 89.4317 7.83326C89.5916 7.66924 89.6716 7.46011 89.6716 7.20587C89.6716 6.95164 89.5916 6.74456 89.4317 6.58464C89.2718 6.42061 89.0688 6.3386 88.8227 6.3386C88.5767 6.3386 88.3717 6.42061 88.2077 6.58464C88.0477 6.74456 87.9678 6.95164 87.9678 7.20587C87.9678 7.46011 88.0477 7.66924 88.2077 7.83326Z" fill="#1D1D1B" fill-opacity="0.24"/>
<path d="M86.7796 7.53185H84.4607C84.5633 7.91731 84.8523 8.11003 85.328 8.11003C85.6314 8.11003 85.8611 8.00752 86.0169 7.80249L86.6566 8.17154C86.3531 8.6103 85.9062 8.82968 85.3157 8.82968C84.8072 8.82968 84.3992 8.67591 84.0917 8.36837C83.7841 8.06083 83.6304 7.67332 83.6304 7.20586C83.6304 6.74659 83.7821 6.36114 84.0855 6.0495C84.3849 5.73785 84.7744 5.58203 85.2542 5.58203C85.7094 5.58203 86.0805 5.73785 86.3675 6.0495C86.6627 6.36114 86.8104 6.74659 86.8104 7.20586C86.8104 7.29197 86.8001 7.40063 86.7796 7.53185ZM84.4484 6.91677H86.0169C85.9718 6.71584 85.8795 6.56207 85.7401 6.45545C85.6048 6.34884 85.4428 6.29553 85.2542 6.29553C85.041 6.29553 84.8646 6.35089 84.7252 6.4616C84.5858 6.56822 84.4935 6.71994 84.4484 6.91677Z" fill="#1D1D1B" fill-opacity="0.24"/>
<path d="M82.5056 5.66795V6.19693C82.5753 6.0042 82.6942 5.85863 82.8624 5.76022C83.0305 5.6577 83.2232 5.60645 83.4405 5.60645V6.49217C83.1986 6.45936 82.9813 6.50857 82.7886 6.63979C82.5999 6.76691 82.5056 6.97809 82.5056 7.27333V8.74338H81.7122V5.66795H82.5056Z" fill="#1D1D1B" fill-opacity="0.24"/>
<path d="M81.1273 7.53185H78.8084C78.9109 7.91731 79.2 8.11003 79.6757 8.11003C79.9791 8.11003 80.2087 8.00752 80.3646 7.80249L81.0042 8.17154C80.7008 8.6103 80.2538 8.82968 79.6634 8.82968C79.1549 8.82968 78.7469 8.67591 78.4393 8.36837C78.1318 8.06083 77.978 7.67332 77.978 7.20586C77.978 6.74659 78.1297 6.36114 78.4332 6.0495C78.7325 5.73785 79.1221 5.58203 79.6019 5.58203C80.057 5.58203 80.4281 5.73785 80.7152 6.0495C81.0104 6.36114 81.158 6.74659 81.158 7.20586C81.158 7.29197 81.1478 7.40063 81.1273 7.53185ZM78.7961 6.91677H80.3646C80.3195 6.71584 80.2272 6.56207 80.0878 6.45545C79.9525 6.34884 79.7905 6.29553 79.6019 6.29553C79.3886 6.29553 79.2123 6.35089 79.0729 6.4616C78.9335 6.56822 78.8412 6.71994 78.7961 6.91677Z" fill="#1D1D1B" fill-opacity="0.24"/>
<path d="M76.4648 7.56243L76.9877 5.66797H77.8303L76.8523 8.7434H76.0958L75.5299 6.87969L74.964 8.7434H74.2075L73.2295 5.66797H74.0722L74.595 7.55628L75.1547 5.66797H75.9051L76.4648 7.56243Z" fill="#1D1D1B" fill-opacity="0.24"/>
<path d="M72.6132 8.36222C72.3016 8.67386 71.9161 8.82968 71.4568 8.82968C70.9976 8.82968 70.6121 8.67386 70.3005 8.36222C69.9888 8.05058 69.833 7.66512 69.833 7.20586C69.833 6.75069 69.9888 6.36729 70.3005 6.05565C70.6162 5.7399 71.0017 5.58203 71.4568 5.58203C71.912 5.58203 72.2975 5.7399 72.6132 6.05565C72.9289 6.37139 73.0868 6.75479 73.0868 7.20586C73.0868 7.66102 72.9289 8.04647 72.6132 8.36222ZM70.8602 7.81479C71.0201 7.97471 71.219 8.05468 71.4568 8.05468C71.6947 8.05468 71.8935 7.97471 72.0535 7.81479C72.2134 7.65487 72.2934 7.45189 72.2934 7.20586C72.2934 6.95982 72.2134 6.75684 72.0535 6.59692C71.8935 6.437 71.6947 6.35704 71.4568 6.35704C71.219 6.35704 71.0201 6.437 70.8602 6.59692C70.7044 6.76095 70.6265 6.96392 70.6265 7.20586C70.6265 7.44779 70.7044 7.65077 70.8602 7.81479Z" fill="#1D1D1B" fill-opacity="0.24"/>
<path d="M67.9327 5.58203C68.3469 5.58203 68.6995 5.7399 68.9907 6.05565C69.2859 6.37139 69.4335 6.75479 69.4335 7.20586C69.4335 7.66512 69.2859 8.05057 68.9907 8.36222C68.7036 8.67386 68.351 8.82968 67.9327 8.82968C67.5022 8.82968 67.17 8.68001 66.9363 8.38067V9.97374H66.1428V5.66814H66.9363V6.03104C67.17 5.7317 67.5022 5.58203 67.9327 5.58203ZM67.1762 7.83324C67.3361 7.99317 67.5391 8.07313 67.7851 8.07313C68.0311 8.07313 68.2341 7.99317 68.394 7.83324C68.5581 7.66922 68.6401 7.46009 68.6401 7.20586C68.6401 6.95162 68.5581 6.74454 68.394 6.58462C68.2341 6.4206 68.0311 6.33859 67.7851 6.33859C67.5391 6.33859 67.3361 6.4206 67.1762 6.58462C67.0162 6.74454 66.9363 6.95162 66.9363 7.20586C66.9363 7.46009 67.0162 7.66922 67.1762 7.83324Z" fill="#1D1D1B" fill-opacity="0.24"/>
<path d="M36.6672 17.9844C38.6765 17.9844 40.5522 16.9842 41.6629 15.3204L45.8504 9.04787C46.5456 8.00649 47.7196 7.38042 48.9773 7.38042H53.8642C54.8497 7.38042 55.653 7.70907 56.274 8.36637C56.895 8.99684 57.2055 9.85536 57.2055 10.9419C57.2055 12.0151 56.895 12.8803 56.274 13.5376C55.6395 14.1815 54.8362 14.5034 53.8642 14.5034H49.9541C48.0713 14.5034 46.326 15.4832 45.3544 17.0856C45.1148 17.4808 45.4012 17.9844 45.8655 17.9844H53.8642C55.8217 17.9844 57.4553 17.3137 58.7648 15.9723C60.0878 14.6174 60.7494 12.9406 60.7494 10.9419C60.7494 8.9566 60.0878 7.28652 58.7648 5.93168C57.4418 4.57684 55.8082 3.89941 53.8642 3.89941H47.8237C45.9338 3.89941 44.17 4.84186 43.128 6.40851L36.1115 16.9577C35.8188 17.3977 36.1364 17.9844 36.6672 17.9844Z" fill="#1D1D1B" fill-opacity="0.24"/>
</svg>
