<svg width="102" height="22" viewBox="0 0 102 22" fill="none" xmlns="http://www.w3.org/2000/svg">
<path d="M91.5429 17.7781L92.6927 14.4795H94.031L92.2403 19.1918H90.8549L89.0642 14.4795H90.4025L91.5429 17.7781Z" fill="#1D1D1B" fill-opacity="0.24"/>
<path d="M88.8801 17.3348H85.327C85.4841 17.9254 85.9271 18.2207 86.6559 18.2207C87.1209 18.2207 87.4727 18.0636 87.7115 17.7495L88.6916 18.315C88.2267 18.9873 87.5418 19.3234 86.6371 19.3234C85.8579 19.3234 85.2328 19.0878 84.7615 18.6165C84.2903 18.1453 84.0547 17.5516 84.0547 16.8353C84.0547 16.1316 84.2872 15.541 84.7521 15.0634C85.2108 14.5859 85.8077 14.3472 86.5428 14.3472C87.2402 14.3472 87.8089 14.5859 88.2487 15.0634C88.7011 15.541 88.9272 16.1316 88.9272 16.8353C88.9272 16.9672 88.9115 17.1337 88.8801 17.3348ZM85.3082 16.3923H87.7115C87.6424 16.0844 87.501 15.8488 87.2874 15.6855C87.08 15.5221 86.8318 15.4404 86.5428 15.4404C86.2161 15.4404 85.9459 15.5253 85.7323 15.6949C85.5187 15.8583 85.3773 16.0907 85.3082 16.3923Z" fill="#1D1D1B" fill-opacity="0.24"/>
<path d="M81.4804 14.3472C82.0019 14.3472 82.426 14.52 82.7527 14.8656C83.092 15.2174 83.2617 15.695 83.2617 16.2981V19.1915H82.0459V16.4489C82.0459 16.1411 81.9611 15.9023 81.7914 15.7327C81.6281 15.563 81.4019 15.4782 81.1128 15.4782C80.7924 15.4782 80.5379 15.5787 80.3494 15.7798C80.1672 15.9746 80.0761 16.2636 80.0761 16.6468V19.1915H78.8604V12.5942H80.0761V15.007C80.3652 14.5671 80.8333 14.3472 81.4804 14.3472Z" fill="#1D1D1B" fill-opacity="0.24"/>
<path d="M75.6471 15.8174C75.6471 16.0185 75.9329 16.1913 76.5047 16.3358C76.7058 16.3798 76.888 16.4332 77.0513 16.496C77.2147 16.5525 77.3781 16.6374 77.5414 16.7505C77.7111 16.8573 77.843 17.0018 77.9373 17.184C78.0315 17.3662 78.0786 17.5767 78.0786 17.8154C78.0786 18.2992 77.8964 18.6731 77.532 18.937C77.1676 19.1946 76.7183 19.3234 76.1843 19.3234C75.2167 19.3234 74.5569 18.9496 74.2051 18.2019L75.2606 17.6081C75.4052 18.0165 75.713 18.2207 76.1843 18.2207C76.6178 18.2207 76.8346 18.0856 76.8346 17.8154C76.8346 17.6144 76.5487 17.4416 75.9769 17.2971C75.7633 17.2405 75.5811 17.184 75.4303 17.1274C75.2795 17.0709 75.1161 16.9892 74.9402 16.8824C74.7643 16.7693 74.6292 16.6279 74.5349 16.4583C74.447 16.2824 74.403 16.0782 74.403 15.8457C74.403 15.3807 74.5726 15.0163 74.9119 14.7524C75.2575 14.4823 75.6848 14.3472 76.1937 14.3472C76.577 14.3472 76.9257 14.4351 77.2398 14.6111C77.554 14.7807 77.8022 15.0257 77.9844 15.3462L76.9477 15.9117C76.7969 15.5912 76.5455 15.431 76.1937 15.431C76.0366 15.431 75.9047 15.4687 75.7978 15.5441C75.6973 15.6132 75.6471 15.7043 75.6471 15.8174Z" fill="#1D1D1B" fill-opacity="0.24"/>
<path d="M72.2329 17.0242V14.4795H73.4487V19.1918H72.2329V18.664C71.9439 19.1039 71.4758 19.3238 70.8286 19.3238C70.3134 19.3238 69.8862 19.151 69.5469 18.8054C69.2139 18.4536 69.0474 17.976 69.0474 17.3729V14.4795H70.2631V17.2221C70.2631 17.5299 70.3448 17.7687 70.5082 17.9383C70.6778 18.108 70.9072 18.1928 71.1962 18.1928C71.5166 18.1928 71.768 18.0954 71.9502 17.9006C72.1387 17.6996 72.2329 17.4074 72.2329 17.0242Z" fill="#1D1D1B" fill-opacity="0.24"/>
<path d="M65.9657 14.3472C66.6003 14.3472 67.1407 14.5891 67.5868 15.0729C68.0392 15.5567 68.2653 16.1442 68.2653 16.8353C68.2653 17.5391 68.0392 18.1297 67.5868 18.6072C67.147 19.0847 66.6066 19.3235 65.9657 19.3235C65.306 19.3235 64.7971 19.0941 64.4389 18.6355V19.1915H63.2231V12.5942H64.4389V15.0352C64.7971 14.5766 65.306 14.3472 65.9657 14.3472ZM64.8065 17.7967C65.0515 18.0417 65.3625 18.1642 65.7395 18.1642C66.1165 18.1642 66.4275 18.0417 66.6726 17.7967C66.9239 17.5453 67.0496 17.2249 67.0496 16.8353C67.0496 16.4458 66.9239 16.1285 66.6726 15.8835C66.4275 15.6321 66.1165 15.5065 65.7395 15.5065C65.3625 15.5065 65.0515 15.6321 64.8065 15.8835C64.5614 16.1285 64.4389 16.4458 64.4389 16.8353C64.4389 17.2249 64.5614 17.5453 64.8065 17.7967Z" fill="#1D1D1B" fill-opacity="0.24"/>
<path d="M61.0796 14.4795V15.29C61.1864 14.9947 61.3686 14.7717 61.6262 14.6209C61.8838 14.4638 62.1791 14.3853 62.5121 14.3853V15.7424C62.1414 15.6921 61.8084 15.7675 61.5131 15.9686C61.2241 16.1634 61.0796 16.487 61.0796 16.9393V19.1918H59.8638V14.4795H61.0796Z" fill="#1D1D1B" fill-opacity="0.24"/>
<path d="M58.968 17.3348H55.4149C55.572 17.9254 56.0149 18.2207 56.7438 18.2207C57.2087 18.2207 57.5606 18.0636 57.7994 17.7495L58.7795 18.315C58.3146 18.9873 57.6297 19.3234 56.7249 19.3234C55.9458 19.3234 55.3207 19.0878 54.8494 18.6165C54.3782 18.1453 54.1426 17.5516 54.1426 16.8353C54.1426 16.1316 54.3751 15.541 54.84 15.0634C55.2987 14.5859 55.8956 14.3472 56.6307 14.3472C57.3281 14.3472 57.8967 14.5859 58.3366 15.0634C58.7889 15.541 59.0151 16.1316 59.0151 16.8353C59.0151 16.9672 58.9994 17.1337 58.968 17.3348ZM55.3961 16.3923H57.7994C57.7302 16.0844 57.5889 15.8488 57.3752 15.6855C57.1679 15.5221 56.9197 15.4404 56.6307 15.4404C56.304 15.4404 56.0338 15.5253 55.8202 15.6949C55.6065 15.8583 55.4652 16.0907 55.3961 16.3923Z" fill="#1D1D1B" fill-opacity="0.24"/>
<path d="M52.0598 15.0352V12.5942H53.2756V19.1915H52.0598V18.6355C51.7017 19.0941 51.1927 19.3235 50.533 19.3235C49.8984 19.3235 49.3549 19.0847 48.9026 18.6072C48.4564 18.1234 48.2334 17.5328 48.2334 16.8353C48.2334 16.1442 48.4564 15.5567 48.9026 15.0729C49.3549 14.5891 49.8984 14.3472 50.533 14.3472C51.1927 14.3472 51.7017 14.5766 52.0598 15.0352ZM49.8167 17.7967C50.0744 18.0417 50.3885 18.1642 50.7592 18.1642C51.1362 18.1642 51.4472 18.0417 51.6923 17.7967C51.9373 17.5453 52.0598 17.2249 52.0598 16.8353C52.0598 16.4458 51.9373 16.1285 51.6923 15.8835C51.4472 15.6321 51.1362 15.5065 50.7592 15.5065C50.3822 15.5065 50.0681 15.6321 49.8167 15.8835C49.5717 16.1285 49.4492 16.4458 49.4492 16.8353C49.4492 17.2249 49.5717 17.5453 49.8167 17.7967Z" fill="#1D1D1B" fill-opacity="0.24"/>
<path d="M96.9657 6.02753L98.0118 2.86084H99.3125L97.5972 7.57318C97.3521 8.25175 97.0254 8.74184 96.617 9.04343C96.2149 9.3513 95.7122 9.48953 95.109 9.45811V8.32715C95.4295 8.33343 95.6871 8.26432 95.8819 8.11981C96.0766 7.9753 96.2306 7.74282 96.3437 7.42238L94.4116 2.86084H95.7405L96.9657 6.02753Z" fill="#1D1D1B" fill-opacity="0.24"/>
<path d="M91.9665 2.72906C92.6011 2.72906 93.1414 2.97096 93.5875 3.45476C94.0399 3.93856 94.2661 4.52604 94.2661 5.21718C94.2661 5.92089 94.0399 6.5115 93.5875 6.98902C93.1477 7.46653 92.6073 7.70529 91.9665 7.70529C91.3067 7.70529 90.7978 7.47596 90.4397 7.01729V7.57335H89.2239V0.976074H90.4397V3.41707C90.7978 2.9584 91.3067 2.72906 91.9665 2.72906ZM90.8072 6.17849C91.0523 6.42354 91.3633 6.54606 91.7403 6.54606C92.1173 6.54606 92.4283 6.42354 92.6733 6.17849C92.9246 5.92717 93.0503 5.60673 93.0503 5.21718C93.0503 4.82763 92.9246 4.51033 92.6733 4.26529C92.4283 4.01396 92.1173 3.8883 91.7403 3.8883C91.3633 3.8883 91.0523 4.01396 90.8072 4.26529C90.5622 4.51033 90.4397 4.82763 90.4397 5.21718C90.4397 5.60673 90.5622 5.92717 90.8072 6.17849Z" fill="#1D1D1B" fill-opacity="0.24"/>
<path d="M84.54 3.41707V0.976074H85.7558V7.57335H84.54V7.01729C84.1819 7.47596 83.673 7.70529 83.0132 7.70529C82.3786 7.70529 81.8352 7.46653 81.3828 6.98902C80.9367 6.50522 80.7136 5.9146 80.7136 5.21718C80.7136 4.52604 80.9367 3.93856 81.3828 3.45476C81.8352 2.97096 82.3786 2.72906 83.0132 2.72906C83.673 2.72906 84.1819 2.9584 84.54 3.41707ZM82.297 6.17849C82.5546 6.42354 82.8687 6.54606 83.2394 6.54606C83.6164 6.54606 83.9274 6.42354 84.1725 6.17849C84.4175 5.92717 84.54 5.60673 84.54 5.21718C84.54 4.82763 84.4175 4.51033 84.1725 4.26529C83.9274 4.01396 83.6164 3.8883 83.2394 3.8883C82.8624 3.8883 82.5483 4.01396 82.297 4.26529C82.0519 4.51033 81.9294 4.82763 81.9294 5.21718C81.9294 5.60673 82.0519 5.92717 82.297 6.17849Z" fill="#1D1D1B" fill-opacity="0.24"/>
<path d="M80.1091 5.71663H76.556C76.7131 6.30724 77.1561 6.60255 77.8849 6.60255C78.3499 6.60255 78.7017 6.44547 78.9405 6.13131L79.9206 6.69679C79.4557 7.36909 78.7708 7.70523 77.8661 7.70523C77.0869 7.70523 76.4618 7.46962 75.9905 6.99838C75.5193 6.52715 75.2837 5.93339 75.2837 5.21712C75.2837 4.51341 75.5162 3.9228 75.9811 3.44528C76.4398 2.96776 77.0367 2.729 77.7718 2.729C78.4692 2.729 79.0379 2.96776 79.4777 3.44528C79.9301 3.9228 80.1562 4.51341 80.1562 5.21712C80.1562 5.34906 80.1405 5.51557 80.1091 5.71663ZM76.5372 4.77416H78.9405C78.8714 4.46629 78.73 4.23067 78.5164 4.06731C78.309 3.90395 78.0608 3.82227 77.7718 3.82227C77.4451 3.82227 77.1749 3.90709 76.9613 4.07673C76.7477 4.24009 76.6063 4.47257 76.5372 4.77416Z" fill="#1D1D1B" fill-opacity="0.24"/>
<path d="M73.56 2.86085V3.67137C73.6668 3.37606 73.849 3.15301 74.1067 3.00222C74.3643 2.84514 74.6596 2.7666 74.9926 2.7666V4.12375C74.6219 4.07349 74.2889 4.14889 73.9936 4.34995C73.7045 4.54472 73.56 4.8683 73.56 5.32069V7.57319H72.3442V2.86085H73.56Z" fill="#1D1D1B" fill-opacity="0.24"/>
<path d="M71.4482 5.71663H67.8951C68.0522 6.30724 68.4952 6.60255 69.224 6.60255C69.689 6.60255 70.0408 6.44547 70.2796 6.13131L71.2597 6.69679C70.7948 7.36909 70.1099 7.70523 69.2052 7.70523C68.4261 7.70523 67.8009 7.46962 67.3297 6.99838C66.8584 6.52715 66.6228 5.93339 66.6228 5.21712C66.6228 4.51341 66.8553 3.9228 67.3202 3.44528C67.7789 2.96776 68.3758 2.729 69.1109 2.729C69.8083 2.729 70.377 2.96776 70.8168 3.44528C71.2692 3.9228 71.4954 4.51341 71.4954 5.21712C71.4954 5.34906 71.4797 5.51557 71.4482 5.71663ZM67.8763 4.77416H70.2796C70.2105 4.46629 70.0691 4.23067 69.8555 4.06731C69.6481 3.90395 69.3999 3.82227 69.1109 3.82227C68.7842 3.82227 68.514 3.90709 68.3004 4.07673C68.0868 4.24009 67.9454 4.47257 67.8763 4.77416Z" fill="#1D1D1B" fill-opacity="0.24"/>
<path d="M64.3043 5.76364L65.1054 2.86084H66.3966L64.8981 7.57318H63.7388L62.8718 4.7175L62.0047 7.57318H60.8454L59.3469 2.86084H60.6381L61.4392 5.75421L62.2968 2.86084H63.4467L64.3043 5.76364Z" fill="#1D1D1B" fill-opacity="0.24"/>
<path d="M58.4025 6.98896C57.925 7.46647 57.3344 7.70523 56.6307 7.70523C55.927 7.70523 55.3364 7.46647 54.8589 6.98896C54.3813 6.51144 54.1426 5.92083 54.1426 5.21712C54.1426 4.51969 54.3813 3.93222 54.8589 3.4547C55.3427 2.9709 55.9333 2.729 56.6307 2.729C57.3281 2.729 57.9187 2.9709 58.4025 3.4547C58.8863 3.9385 59.1282 4.52598 59.1282 5.21712C59.1282 5.91454 58.8863 6.50516 58.4025 6.98896ZM55.7165 6.15016C55.9615 6.3952 56.2663 6.51772 56.6307 6.51772C56.9951 6.51772 57.2998 6.3952 57.5449 6.15016C57.7899 5.90512 57.9124 5.59411 57.9124 5.21712C57.9124 4.84013 57.7899 4.52912 57.5449 4.28408C57.2998 4.03903 56.9951 3.91651 56.6307 3.91651C56.2663 3.91651 55.9615 4.03903 55.7165 4.28408C55.4777 4.5354 55.3584 4.84641 55.3584 5.21712C55.3584 5.58782 55.4777 5.89884 55.7165 6.15016Z" fill="#1D1D1B" fill-opacity="0.24"/>
<path d="M51.2306 2.729C51.8652 2.729 52.4056 2.9709 52.8517 3.4547C53.304 3.9385 53.5302 4.52598 53.5302 5.21712C53.5302 5.92083 53.304 6.51144 52.8517 6.98896C52.4118 7.46647 51.8715 7.70523 51.2306 7.70523C50.5709 7.70523 50.062 7.4759 49.7038 7.01723V9.45822H48.488V2.86095H49.7038V3.417C50.062 2.95834 50.5709 2.729 51.2306 2.729ZM50.0714 6.17843C50.3164 6.42348 50.6274 6.546 51.0044 6.546C51.3814 6.546 51.6924 6.42348 51.9375 6.17843C52.1888 5.92711 52.3145 5.60667 52.3145 5.21712C52.3145 4.82756 52.1888 4.51027 51.9375 4.26523C51.6924 4.0139 51.3814 3.88824 51.0044 3.88824C50.6274 3.88824 50.3164 4.0139 50.0714 4.26523C49.8263 4.51027 49.7038 4.82756 49.7038 5.21712C49.7038 5.60667 49.8263 5.92711 50.0714 6.17843Z" fill="#1D1D1B" fill-opacity="0.24"/>
<path d="M3.32409 21.7327C6.40287 21.7327 9.27691 20.2001 10.9788 17.6508L17.395 8.03963C18.4603 6.44396 20.2592 5.48467 22.1863 5.48467H29.6742C31.1843 5.48467 32.4151 5.98824 33.3666 6.99539C34.3182 7.96143 34.794 9.2769 34.794 10.9418C34.794 12.5861 34.3182 13.9118 33.3666 14.919C32.3944 15.9056 31.1636 16.3989 29.6742 16.3989H23.6829C20.798 16.3989 18.1238 17.9002 16.6351 20.3555C16.268 20.9609 16.7068 21.7327 17.4182 21.7327H29.6742C32.6737 21.7327 35.1767 20.705 37.1832 18.6496C39.2104 16.5736 40.2241 14.0043 40.2241 10.9418C40.2241 7.89977 39.2104 5.34079 37.1832 3.26482C35.156 1.18886 32.653 0.150879 29.6742 0.150879H20.4187C17.5229 0.150879 14.8203 1.59495 13.2237 3.99545L2.47261 20.1594C2.02418 20.8336 2.51077 21.7327 3.32409 21.7327Z" fill="#1D1D1B" fill-opacity="0.24"/>
</svg>
