<svg width="102" height="22" viewBox="0 0 102 22" fill="none" xmlns="http://www.w3.org/2000/svg">
<path d="M83.9412 2.4834H77.5094C74.526 2.4834 72.1003 4.90904 72.1003 7.89249V17.7895C72.1003 18.7783 72.9033 19.5812 73.8921 19.5812C74.881 19.5812 75.6839 18.7783 75.6839 17.7895V12.7776H80.0872C81.0761 12.7776 81.879 11.9747 81.879 10.9858C81.879 9.99697 81.0761 9.19406 80.0872 9.19406H75.6839V7.89249C75.6839 6.88674 76.5037 6.06693 77.5094 6.06693H83.9412C84.93 6.06693 85.733 5.26401 85.733 4.27516C85.733 3.28631 84.93 2.4834 83.9412 2.4834Z" fill="#1D1D1B"/>
<path d="M99.585 2.4834H93.1532C90.1698 2.4834 87.7441 4.90904 87.7441 7.89249V17.7895C87.7441 18.7783 88.5471 19.5812 89.5359 19.5812C90.5248 19.5812 91.3277 18.7783 91.3277 17.7895V12.7776H95.731C96.7199 12.7776 97.5228 11.9747 97.5228 10.9858C97.5228 9.99697 96.7199 9.19406 95.731 9.19406H91.3277V7.89249C91.3277 6.88674 92.1475 6.06693 93.1532 6.06693H99.585C100.574 6.06693 101.377 5.26401 101.377 4.27516C101.377 3.28631 100.574 2.4834 99.585 2.4834Z" fill="#1D1D1B"/>
<path d="M14.6878 6.06693C15.6767 6.06693 16.4796 5.26401 16.4796 4.27516C16.4796 3.28631 15.6767 2.4834 14.6878 2.4834H1.94264C0.953792 2.4834 0.150879 3.28631 0.150879 4.27516C0.150879 5.26401 0.953792 6.06693 1.94264 6.06693H6.52347V17.7895C6.52347 18.7783 7.32638 19.5812 8.31523 19.5812C9.30409 19.5812 10.107 18.7783 10.107 17.7895V6.06693H14.6878Z" fill="#1D1D1B"/>
<path d="M42.2908 12.5579C41.5724 11.8733 40.4399 11.9071 39.7553 12.6171C39.0707 13.3355 39.0961 14.468 39.8145 15.1526L43.9389 19.0826C44.2854 19.4123 44.7334 19.5728 45.1729 19.5728C45.6462 19.5728 46.1195 19.3869 46.4744 19.015C47.159 18.2966 47.1337 17.1641 46.4153 16.4795L42.2908 12.5495V12.5579Z" fill="#1D1D1B"/>
<path d="M45.511 5.5939C46.2463 4.92621 46.297 3.79368 45.6293 3.05838C44.9616 2.32308 43.8291 2.27237 43.0938 2.94006L35.969 9.42252V4.26698C35.969 3.27813 35.1661 2.47522 34.1773 2.47522C33.1884 2.47522 32.3855 3.27813 32.3855 4.26698V17.7813C32.3855 18.7701 33.1884 19.573 34.1773 19.573C35.1661 19.573 35.969 18.7701 35.969 17.7813V14.2654L45.511 5.5939Z" fill="#1D1D1B"/>
<path d="M24.0015 3.16846C23.7057 2.53458 23.0718 2.12891 22.3703 2.12891C21.6688 2.12891 21.0349 2.53458 20.7391 3.16846L14.4426 16.818C14.1383 17.4857 14.2651 18.2632 14.7638 18.7957C15.2624 19.3281 16.04 19.5056 16.7161 19.2352L22.8182 16.8602C23.7395 16.5053 24.1959 15.4657 23.8409 14.536C23.4775 13.6148 22.4379 13.1584 21.5167 13.5134L19.5474 14.2825L22.3534 8.19723L27.0103 18.3139C27.3145 18.9732 27.9653 19.3535 28.6415 19.3535C28.895 19.3535 29.1486 19.3028 29.3937 19.1845C30.2896 18.7703 30.6868 17.7054 30.2726 16.8095L23.9846 3.16002L24.0015 3.16846Z" fill="#1D1D1B"/>
<path d="M58.7548 0.150879C52.7794 0.150879 47.9451 4.99371 47.9451 10.9606C47.9451 16.9275 52.7879 21.7704 58.7548 21.7704C64.7217 21.7704 69.5646 16.9275 69.5646 10.9606C69.5646 4.99371 64.7217 0.150879 58.7548 0.150879Z" fill="#FFDF00"/>
<path d="M55.0601 4.29178C55.6732 3.95363 56.4443 4.17649 56.7824 4.78955C57.1206 5.40263 56.8977 6.17369 56.2847 6.51186C55.4384 6.97868 54.7398 7.68436 54.2781 8.53972C53.9455 9.15586 53.1763 9.38578 52.5602 9.05322C51.9441 8.72066 51.7141 7.95149 52.0467 7.33536C52.7385 6.05365 53.7859 4.99462 55.0601 4.29178Z" fill="#1D1D1B"/>
</svg>
